<svg width="32" height="38" viewBox="0 0 32 38" fill="none" xmlns="http://www.w3.org/2000/svg">
<path d="M5.15789 17.5088C3.41384 17.5088 2 19.0483 2 20.9474V32.9824" stroke="#ECAA00" stroke-width="3" stroke-linecap="round" stroke-linejoin="round"/>
<path d="M27.3684 35.9649H5.26316C3.5191 35.9649 2 34.5657 2 32.6666" stroke="#82B320" stroke-width="3" stroke-linecap="round" stroke-linejoin="round"/>
<path d="M30.4211 20.5263V32.5614C30.4211 34.4605 29.0072 36 27.2632 36" stroke="#E5405C" stroke-width="3" stroke-linecap="round" stroke-linejoin="round"/>
<path d="M5.26318 17.4737H27.3684C29.1125 17.4737 30.4211 18.9781 30.4211 20.8772" stroke="#0071CB" stroke-width="3" stroke-linecap="round" stroke-linejoin="round"/>
<path d="M21.8984 4.51784C23.379 6.13 24.2108 8.31655 24.2108 10.5965V14.0351V17.4737" stroke="#FA802E" stroke-width="3" stroke-linecap="round" stroke-linejoin="round"/>
<path d="M10.7334 4.51785C12.2139 2.9057 14.222 2 16.3158 2C18.4096 2 20.4177 2.9057 21.8982 4.51785" stroke="#B600DA" stroke-width="3" stroke-linecap="round" stroke-linejoin="round"/>
<path d="M8.4209 17.4737V10.5965C8.4209 8.31656 9.25266 6.13001 10.7332 4.51785" stroke="#E5405C" stroke-width="3" stroke-linecap="round" stroke-linejoin="round"/>
</svg>
