<svg width="19" height="19" viewBox="0 0 19 19" fill="none" xmlns="http://www.w3.org/2000/svg">
<path d="M17.2562 2.7143H15.8558C15.8266 2.7143 15.8007 2.72273 15.7736 2.72825V1.49114C15.7736 0.668859 14.9603 0 13.9605 0H1.81311C0.813268 0 0 0.668859 0 1.49114V15.3977C0 16.22 0.813268 16.8889 1.81311 16.8889H3.94339V17.5622C3.94339 18.355 4.7255 19 5.68719 19H17.2562C18.2179 19 19 18.355 19 17.5622V4.15212C19 3.35929 18.2179 2.7143 17.2562 2.7143ZM0.716964 15.3977V1.49114C0.716964 1.00166 1.20886 0.603191 1.81311 0.603191H13.9605C14.5647 0.603191 15.0566 1.00166 15.0566 1.49114V15.3977C15.0566 15.8872 14.5647 16.2857 13.9605 16.2857H1.81311C1.20886 16.2857 0.716964 15.8872 0.716964 15.3977ZM18.283 17.5622C18.283 18.0225 17.8223 18.3968 17.2562 18.3968H5.68719C5.12109 18.3968 4.66036 18.0225 4.66036 17.5622V16.8889H13.9605C14.9603 16.8889 15.7736 16.22 15.7736 15.3977V3.30351C15.8007 3.30903 15.8266 3.31746 15.8558 3.31746H17.2562C17.8223 3.31746 18.283 3.69179 18.283 4.15212V17.5622Z" fill="white"/>
</svg>
